<?xml version="1.0" encoding="UTF-8" standalone="no"?>
<!-- Created with Inkscape (http://www.inkscape.org/) -->

<svg
   xmlns:dc="http://purl.org/dc/elements/1.1/"
   xmlns:cc="http://creativecommons.org/ns#"
   xmlns:rdf="http://www.w3.org/1999/02/22-rdf-syntax-ns#"
   xmlns:svg="http://www.w3.org/2000/svg"
   xmlns="http://www.w3.org/2000/svg"
   xmlns:sodipodi="http://sodipodi.sourceforge.net/DTD/sodipodi-0.dtd"
   xmlns:inkscape="http://www.inkscape.org/namespaces/inkscape"
   version="1.1"
   id="svg2"
   xml:space="preserve"
   width="100"
   height="50"
   viewBox="0 0 100 50.000001"
   sodipodi:docname="כנסת.svg"
   inkscape:version="0.92.5 (2060ec1f9f, 2020-04-08)"><metadata
     id="metadata8"><rdf:RDF><cc:Work
         rdf:about=""><dc:format>image/svg+xml</dc:format><dc:type
           rdf:resource="http://purl.org/dc/dcmitype/StillImage" /><dc:title></dc:title></cc:Work></rdf:RDF></metadata><defs
     id="defs6"><clipPath
       clipPathUnits="userSpaceOnUse"
       id="clipPath1360"><path
         d="M 0,0 H 581.102 V 765.355 H 0 Z"
         id="path1358"
         inkscape:connector-curvature="0" /></clipPath></defs><sodipodi:namedview
     pagecolor="#ffffff"
     bordercolor="#666666"
     borderopacity="1"
     objecttolerance="10"
     gridtolerance="10"
     guidetolerance="10"
     inkscape:pageopacity="0"
     inkscape:pageshadow="2"
     inkscape:window-width="1366"
     inkscape:window-height="705"
     id="namedview4"
     showgrid="false"
     inkscape:zoom="2.6164708"
     inkscape:cx="6.4058906"
     inkscape:cy="100.45451"
     inkscape:window-x="-8"
     inkscape:window-y="-8"
     inkscape:window-maximized="1"
     inkscape:current-layer="g10" /><g
     id="g10"
     inkscape:groupmode="layer"
     inkscape:label="Pages from אל על  (14)"
     transform="matrix(1.3333333,0,0,-1.3333333,0,50.00002)"><g
       id="g3409"
       style="fill:#00a2ff;fill-opacity:1"
       transform="matrix(1.9877765,0,0,1.9877765,-270.45448,-150.50379)"><path
         d="m 159.8268,80.5887 v 9.122 h -3.68 v -2.551 h 1.256 v -4.003 h -1.764 v -2.568 z"
         style="fill:#00a2ff;fill-opacity:1;fill-rule:nonzero;stroke:none"
         id="path1256"
         inkscape:connector-curvature="0" /><path
         d="m 146.8763,84.2436 c 0,-0.531 0.1,-1.028 0.3,-1.492 0.199,-0.463 0.468,-0.867 0.806,-1.21 0.338,-0.344 0.735,-0.617 1.191,-0.82 0.456,-0.203 0.945,-0.305 1.468,-0.305 0.522,0 1.011,0.102 1.467,0.305 0.456,0.203 0.853,0.476 1.191,0.82 0.338,0.343 0.607,0.747 0.807,1.21 0.199,0.464 0.299,0.961 0.299,1.492 v 5.467 h -8.561 v -2.551 h 1.032 z m 2.387,2.916 h 2.756 v -3.006 c 0,-0.385 -0.134,-0.713 -0.403,-0.984 -0.268,-0.271 -0.593,-0.406 -0.975,-0.406 -0.382,0 -0.707,0.135 -0.976,0.406 -0.268,0.271 -0.402,0.599 -0.402,0.984 z"
         style="fill:#00a2ff;fill-opacity:1;fill-rule:nonzero;stroke:none"
         id="path1260"
         inkscape:connector-curvature="0" /><path
         d="m 144.5428,80.5574 v 9.153 h -8.484 v -2.551 h 1.263 v -4.003 h -1.263 v -2.599 h 3.725 v 6.602 h 2.297 v -6.602 z"
         style="fill:#00a2ff;fill-opacity:1;fill-rule:nonzero;stroke:none"
         id="path1264"
         inkscape:connector-curvature="0" /><path
         d="m 161.1534,94.3623 v -2.707 h 9.955 v -13.013 h -9.955 v -2.71 h 12.635 v 0.004 2.706 13.013 l 0.001,2.689 v 0.018 z"
         style="fill:#00a2ff;fill-opacity:1;fill-rule:nonzero;stroke:none"
         id="path1268"
         inkscape:connector-curvature="0" /><path
         d="m 166.4686,89.7593 h -5.315 v -2.6 h 5.315 v -4.003 h -5.315 v -2.568 h 5.315 2.568 v 2.568 4.003 2.6 z"
         style="fill:#00a2ff;fill-opacity:1;fill-rule:nonzero;stroke:none"
         id="path1272"
         inkscape:connector-curvature="0" /></g><g
       id="g1354"><g
         id="g1356"
         clip-path="url(#clipPath1360)"><g
           id="g1362"
           transform="translate(-8.8345,763.9371)"><path
             d="m 0,0 h -15 m 608.102,0 h 15 M 0,-765.354 h -15 m 608.102,0 h 15 M 6,6 v 15 m 0,-792.354 v -15 M 587.102,6 v 15 m 0,-792.354 v -15"
             style="fill:none;stroke:#ffffff;stroke-width:1.25;stroke-linecap:butt;stroke-linejoin:miter;stroke-miterlimit:10;stroke-dasharray:none;stroke-opacity:1"
             id="path1364"
             inkscape:connector-curvature="0" /></g><g
           id="g1366"
           transform="translate(-8.8345,763.9371)"><path
             d="m 0,0 h -15 m 608.102,0 h 15 M 0,-765.354 h -15 m 608.102,0 h 15 M 6,6 v 15 m 0,-792.354 v -15 M 587.102,6 v 15 m 0,-792.354 v -15"
             style="fill:none;stroke:#000000;stroke-width:0.25;stroke-linecap:butt;stroke-linejoin:miter;stroke-miterlimit:10;stroke-dasharray:none;stroke-opacity:1"
             id="path1368"
             inkscape:connector-curvature="0" /></g></g></g></g></svg>